<?xml version="1.0" standalone="no"?>
<!DOCTYPE svg PUBLIC "-//W3C//DTD SVG 20010904//EN"
 "http://www.w3.org/TR/2001/REC-SVG-20010904/DTD/svg10.dtd">
<svg version="1.0" xmlns="http://www.w3.org/2000/svg"
 width="266.000000pt" height="190.000000pt" viewBox="0 0 266.000000 190.000000"
 preserveAspectRatio="xMidYMid meet">

<g transform="translate(0.000000,190.000000) scale(0.100000,-0.100000)"
fill="#000000" stroke="none">
<path d="M1600 1142 c-93 -33 -100 -38 -100 -65 0 -12 -8 -27 -19 -34 -13 -8
-21 -29 -25 -66 l-7 -55 -36 9 c-40 8 -120 -3 -156 -23 l-22 -13 24 -3 c13 -2
43 2 67 8 44 13 78 5 53 -11 -9 -6 2 -9 31 -9 42 0 47 3 57 30 6 17 18 30 27
30 13 0 13 3 -4 20 -29 29 -25 40 15 40 31 0 35 -3 35 -25 0 -17 7 -28 23 -34
29 -11 44 -29 50 -61 4 -24 4 -24 11 5 l8 31 81 -1 82 0 3 36 c3 34 6 36 64
55 34 11 63 25 65 31 5 14 -201 133 -229 132 -13 0 -57 -13 -98 -27z m-32
-147 c-3 -3 -9 2 -12 12 -6 14 -5 15 5 6 7 -7 10 -15 7 -18z"/>
<path d="M1473 1103 c-15 -5 -18 -33 -4 -33 8 0 25 30 19 35 -2 1 -9 0 -15 -2z"/>
<path d="M620 937 c-27 -13 -42 -67 -19 -67 7 0 9 3 6 7 -16 15 15 31 53 26
33 -5 40 -3 40 11 0 9 -12 21 -26 26 -30 12 -24 12 -54 -3z"/>
<path d="M1330 877 c-47 -22 -54 -29 -39 -38 17 -10 69 17 69 36 0 8 -1 15 -2
14 -2 0 -14 -6 -28 -12z"/>
<path d="M1276 761 c-15 -17 -16 -25 -8 -51 10 -28 1 -42 -13 -20 -7 12 -45
13 -45 2 0 -16 30 -70 46 -83 19 -16 54 -22 54 -10 0 5 -7 11 -15 15 -8 3 -15
10 -15 16 0 6 11 3 25 -6 13 -8 29 -13 35 -9 6 4 9 3 8 -2 -4 -14 13 -53 23
-53 5 0 15 16 23 35 8 19 22 38 31 41 9 4 13 15 11 30 -5 24 -4 24 78 24 78 0
84 1 90 23 8 32 7 49 -3 43 -4 -3 -35 -1 -67 5 -32 5 -100 12 -150 15 -81 4
-93 2 -108 -15z"/>
<path d="M1126 663 c13 -60 25 -89 49 -118 l24 -30 1 28 c0 15 4 27 9 27 5 0
12 7 15 17 8 19 -26 58 -74 86 l-31 19 7 -29z"/>
<path d="M550 609 c0 -18 2 -19 15 -9 8 7 15 16 15 21 0 5 -7 9 -15 9 -9 0
-15 -9 -15 -21z"/>
<path d="M651 608 c0 -20 1 -20 7 -5 7 17 9 17 29 -2 14 -14 23 -16 26 -8 8
23 -5 37 -34 37 -24 0 -29 -4 -28 -22z"/>
<path d="M1427 623 c-4 -3 -7 -13 -7 -21 0 -8 -8 -21 -17 -29 -17 -14 -17 -14
0 -9 9 3 17 1 17 -4 0 -6 -12 -10 -27 -10 -16 0 -35 -5 -43 -10 -12 -8 -9 -10
13 -10 27 0 28 -2 26 -42 -2 -24 1 -42 7 -42 5 1 20 4 34 7 20 5 27 1 36 -18
10 -20 8 -27 -7 -41 -24 -22 -26 -105 -3 -128 14 -15 -33 -16 -543 -15 -307 1
-566 -2 -575 -6 -10 -4 -18 -11 -18 -16 0 -5 414 -9 986 -9 784 0 985 3 982
13 -4 9 -54 13 -196 15 -122 1 -192 6 -192 13 0 6 -73 9 -211 8 -129 -1 -214
2 -220 8 -6 6 -9 32 -7 59 l3 49 88 3 c87 3 88 3 66 21 -16 13 -20 24 -16 43
8 32 39 38 198 38 126 0 129 1 129 56 l0 24 -166 0 -165 0 1 -22 c5 -58 5 -58
-61 -51 -47 5 -63 3 -70 -8 -6 -10 -9 -10 -9 -1 0 6 -7 12 -16 12 -14 0 -15
10 -10 65 6 65 5 71 -7 58z"/>
<path d="M667 570 c-3 -11 -1 -20 4 -20 5 0 9 2 9 4 0 2 3 11 6 20 3 9 2 16
-4 16 -5 0 -12 -9 -15 -20z"/>
<path d="M643 535 c0 -27 2 -38 4 -22 2 15 2 37 0 50 -2 12 -4 0 -4 -28z"/>
<path d="M709 538 c-3 -22 -1 -34 4 -29 5 5 7 21 5 37 -3 27 -4 26 -9 -8z"/>
<path d="M721 474 c0 -16 4 -38 9 -49 6 -13 7 -5 3 25 -7 53 -13 66 -12 24z"/>
<path d="M661 434 c0 -11 3 -14 6 -6 3 7 2 16 -1 19 -3 4 -6 -2 -5 -13z"/>
<path d="M677 413 c-4 -3 -7 -16 -6 -27 0 -19 1 -19 10 3 10 24 8 36 -4 24z"/>
<path d="M725 391 c-3 -5 -1 -12 5 -16 5 -3 10 1 10 9 0 18 -6 21 -15 7z"/>
<path d="M1778 393 c23 -2 61 -2 85 0 23 2 4 4 -43 4 -47 0 -66 -2 -42 -4z"/>
<path d="M687 353 c-4 -3 -7 -11 -7 -17 0 -6 5 -5 12 2 6 6 9 14 7 17 -3 3 -9
2 -12 -2z"/>
<path d="M736 352 c-2 -4 -1 -14 5 -22 7 -12 9 -10 9 8 0 23 -5 28 -14 14z"/>
<path d="M718 303 c6 -2 18 -2 25 0 6 3 1 5 -13 5 -14 0 -19 -2 -12 -5z"/>
</g>
</svg>
